<?xml version="1.0" encoding="UTF-8"?>
<svg xmlns="http://www.w3.org/2000/svg" xmlns:xlink="http://www.w3.org/1999/xlink" width="50px" height="50px" viewBox="0 0 50 50" version="1.1">
<g id="surface1">
<path style=" stroke:none;fill-rule:evenodd;fill:rgb(25.882353%,52.156863%,95.686275%);fill-opacity:1;" d="M 34.667969 31.519531 L 36.207031 28.917969 L 43.5625 28.917969 L 45.832031 25 L 41.292969 17.1875 L 34.894531 17.1875 L 32.6875 13.3125 L 30.207031 13.3125 L 30.207031 10.6875 L 34.25 10.6875 L 36.457031 14.582031 L 39.769531 14.582031 L 35.207031 6.769531 L 26.3125 6.769531 L 26.3125 17.1875 L 29.917969 17.1875 L 31.4375 19.792969 L 26.3125 19.792969 L 26.3125 25 L 31.019531 25 L 33.207031 21.105469 L 39.0625 21.105469 L 40.5625 23.707031 L 34.730469 23.707031 L 32.542969 27.605469 L 26.3125 27.605469 L 26.3125 36.730469 L 33.394531 36.730469 L 31.894531 39.332031 L 26.3125 39.332031 L 26.3125 43.230469 L 35.207031 43.230469 L 42.042969 31.519531 L 37.6875 31.519531 L 36.167969 34.125 L 30.207031 34.125 L 30.207031 31.519531 Z M 34.667969 31.519531 "/>
<path style=" stroke:none;fill-rule:evenodd;fill:rgb(40%,61.568627%,96.470588%);fill-opacity:1;" d="M 15.332031 31.519531 L 13.792969 28.917969 L 6.4375 28.917969 L 4.167969 25 L 8.707031 17.1875 L 15.105469 17.1875 L 17.3125 13.3125 L 19.792969 13.3125 L 19.792969 10.6875 L 15.75 10.6875 L 13.542969 14.582031 L 10.230469 14.582031 L 14.792969 6.769531 L 23.707031 6.769531 L 23.707031 17.1875 L 20.082031 17.1875 L 18.5625 19.792969 L 23.707031 19.792969 L 23.707031 25 L 18.980469 25 L 16.792969 21.105469 L 10.9375 21.105469 L 9.4375 23.707031 L 15.269531 23.707031 L 17.457031 27.605469 L 23.707031 27.605469 L 23.707031 36.730469 L 16.605469 36.730469 L 18.105469 39.332031 L 23.707031 39.332031 L 23.707031 43.230469 L 14.792969 43.230469 L 7.957031 31.519531 L 12.3125 31.519531 L 13.832031 34.125 L 19.792969 34.125 L 19.792969 31.519531 Z M 15.332031 31.519531 "/>
</g>
</svg>
