<?xml version="1.0" encoding="UTF-8"?>
<svg xmlns="http://www.w3.org/2000/svg" xmlns:xlink="http://www.w3.org/1999/xlink" width="50px" height="50px" viewBox="0 0 50 50" version="1.1">
<g id="surface1">
<path style=" stroke:none;fill-rule:nonzero;fill:rgb(0%,73.72549%,94.901961%);fill-opacity:1;" d="M 33.550781 2.378906 C 33.429688 2.375 33.347656 2.375 33.324219 2.402344 C 33.289062 2.441406 32.761719 4.058594 32.164062 5.972656 C 31.566406 7.886719 30.085938 12.617188 28.863281 16.507812 C 27.636719 20.398438 26.664062 23.652344 26.695312 23.738281 C 26.75 23.875 27.007812 23.894531 28.570312 23.894531 C 30.039062 23.894531 30.394531 23.933594 30.492188 24.050781 C 30.589844 24.171875 30.316406 24.910156 29.019531 28.046875 C 28.140625 30.164062 27.332031 32.078125 27.230469 32.3125 C 27.132812 32.546875 27.109375 32.730469 27.164062 32.714844 C 27.335938 32.65625 38.125 20.351562 38.125 20.214844 C 38.125 20.105469 37.6875 20.078125 35.824219 20.078125 C 34.386719 20.078125 33.519531 20.050781 33.480469 19.988281 C 33.449219 19.9375 33.757812 19.28125 34.175781 18.539062 C 34.589844 17.796875 35.585938 16 36.40625 14.542969 C 39.933594 8.277344 41.578125 5.363281 41.628906 5.234375 C 41.6875 5.085938 40.113281 4.238281 38.75 3.695312 C 37.351562 3.140625 34.386719 2.410156 33.550781 2.378906 Z M 27.613281 4.8125 L 27.253906 4.855469 C 26.839844 4.921875 24.695312 5.503906 24.285156 5.660156 L 23.996094 5.769531 L 24.039062 7.9375 L 24.0625 10.101562 L 23.773438 10.257812 C 23.613281 10.339844 23.179688 10.578125 22.8125 10.792969 L 22.144531 11.171875 L 20.355469 10.125 C 19.375 9.546875 18.546875 9.050781 18.503906 9.03125 C 18.394531 8.972656 17.199219 10.046875 16.449219 10.882812 L 15.804688 11.597656 L 16.917969 13.449219 L 18.035156 15.300781 L 17.789062 15.703125 C 17.65625 15.925781 17.394531 16.371094 17.230469 16.6875 L 16.941406 17.265625 L 14.800781 17.222656 L 12.632812 17.175781 L 12.433594 17.667969 C 12.253906 18.144531 11.84375 19.757812 11.71875 20.457031 L 11.652344 20.816406 L 15.402344 22.871094 L 15.402344 25.125 L 13.527344 26.152344 L 11.652344 27.175781 L 11.71875 27.535156 C 11.820312 28.109375 12.234375 29.707031 12.433594 30.28125 L 12.613281 30.816406 L 14.777344 30.769531 L 16.941406 30.726562 L 17.230469 31.308594 C 17.394531 31.625 17.65625 32.070312 17.789062 32.289062 L 18.035156 32.691406 L 16.917969 34.542969 L 15.804688 36.394531 L 16.585938 37.246094 C 17.292969 38.019531 18.339844 38.984375 18.460938 38.984375 C 18.484375 38.984375 19.332031 38.507812 20.335938 37.914062 L 22.164062 36.820312 L 22.8125 37.222656 C 23.175781 37.433594 23.613281 37.679688 23.773438 37.757812 L 24.0625 37.890625 L 24.039062 40.058594 L 23.996094 42.222656 L 24.285156 42.332031 C 24.722656 42.5 26.152344 42.898438 26.851562 43.046875 C 27.203125 43.125 27.515625 43.199219 27.542969 43.203125 C 27.574219 43.207031 28.074219 42.386719 28.636719 41.375 L 29.664062 39.519531 L 31.988281 39.519531 L 32.992188 41.351562 L 33.996094 43.160156 L 34.332031 43.113281 C 34.710938 43.078125 36.632812 42.605469 37.210938 42.402344 L 37.589844 42.246094 L 37.589844 37.890625 L 37.878906 37.757812 C 38.042969 37.675781 38.476562 37.433594 38.839844 37.222656 L 39.507812 36.820312 L 41.316406 37.914062 C 42.308594 38.511719 43.152344 38.984375 43.214844 38.984375 C 43.371094 38.984375 45.78125 36.554688 45.78125 36.394531 C 45.78125 36.328125 45.300781 35.460938 44.710938 34.476562 L 43.636719 32.691406 L 43.882812 32.289062 C 44.019531 32.070312 44.257812 31.625 44.417969 31.308594 L 44.710938 30.726562 L 46.875 30.769531 L 49.039062 30.816406 L 49.21875 30.28125 C 49.417969 29.703125 49.835938 28.101562 49.933594 27.535156 L 50 27.175781 L 48.125 26.152344 L 46.273438 25.125 L 46.273438 22.871094 L 48.125 21.84375 C 49.148438 21.277344 50 20.78125 50 20.726562 C 49.996094 20.484375 49.5 18.492188 49.285156 17.871094 L 49.039062 17.175781 L 46.875 17.222656 L 44.710938 17.265625 L 44.417969 16.6875 C 44.257812 16.371094 44.019531 15.925781 43.882812 15.703125 L 43.636719 15.300781 L 44.730469 13.449219 L 45.847656 11.597656 L 45.066406 10.75 C 44.21875 9.820312 43.269531 8.976562 43.148438 9.03125 C 43.105469 9.046875 42.609375 9.308594 42.054688 9.632812 L 41.050781 10.234375 L 39.597656 12.378906 L 38.148438 14.519531 L 39.085938 15.457031 C 41.035156 17.394531 42.207031 19.652344 42.589844 22.246094 C 42.769531 23.457031 42.773438 24.109375 42.632812 25.324219 C 42.042969 30.539062 38.144531 34.71875 32.945312 35.703125 C 31.914062 35.898438 29.800781 35.894531 28.707031 35.703125 C 25.289062 35.109375 22.140625 32.859375 20.425781 29.789062 C 18.824219 26.929688 18.496094 23.359375 19.53125 20.234375 C 20.535156 17.214844 22.726562 14.710938 25.625 13.316406 C 26.554688 12.867188 28.144531 12.332031 28.550781 12.332031 C 28.796875 12.332031 28.84375 12.175781 29.308594 10.234375 L 29.710938 8.582031 L 28.660156 6.6875 Z M 7.210938 31.308594 L 6.851562 32.421875 L 6.496094 33.539062 L 5.847656 33.808594 L 5.199219 34.074219 L 4.175781 33.605469 C 3.609375 33.339844 3.125 33.113281 3.082031 33.113281 C 3.035156 33.113281 2.714844 33.410156 2.367188 33.761719 L 1.71875 34.386719 L 2.230469 35.390625 C 2.515625 35.941406 2.746094 36.449219 2.746094 36.507812 C 2.742188 36.566406 2.648438 36.863281 2.523438 37.175781 L 2.277344 37.757812 L 0.0429688 38.5625 L 0.0234375 39.5 L 0 40.414062 L 1.136719 40.792969 L 2.253906 41.152344 L 2.457031 41.621094 C 2.804688 42.40625 2.796875 42.480469 2.253906 43.582031 L 1.761719 44.609375 L 2.410156 45.28125 L 3.082031 45.925781 L 4.175781 45.390625 L 5.246094 44.855469 L 5.894531 45.144531 L 6.519531 45.4375 L 7.277344 47.625 L 9.175781 47.625 L 9.507812 46.507812 L 9.867188 45.414062 L 10.492188 45.144531 L 11.136719 44.855469 L 12.253906 45.371094 L 13.347656 45.882812 L 13.996094 45.234375 L 14.644531 44.589844 L 14.128906 43.515625 L 13.59375 42.445312 L 13.816406 41.84375 C 13.9375 41.515625 14.089844 41.21875 14.152344 41.171875 C 14.214844 41.125 14.730469 40.910156 15.3125 40.703125 L 16.382812 40.347656 L 16.363281 39.410156 L 16.316406 38.472656 L 15.222656 38.113281 L 14.105469 37.757812 L 13.863281 37.175781 C 13.730469 36.859375 13.636719 36.550781 13.636719 36.484375 C 13.636719 36.417969 13.84375 35.914062 14.105469 35.347656 L 14.597656 34.320312 L 13.257812 32.980469 L 12.210938 33.539062 L 11.183594 34.074219 L 10.535156 33.808594 L 9.886719 33.5625 L 9.488281 32.421875 L 9.0625 31.308594 Z M 8.191406 36.910156 C 10.570312 36.910156 11.675781 39.785156 9.910156 41.375 C 9.648438 41.609375 9.253906 41.847656 9.039062 41.910156 C 7.628906 42.332031 6.132812 41.589844 5.738281 40.257812 C 5.535156 39.578125 5.542969 39.199219 5.78125 38.5625 C 6.167969 37.53125 7.089844 36.910156 8.191406 36.910156 Z M 8.191406 36.910156 "/>
</g>
</svg>
