<?xml version="1.0" encoding="UTF-8"?>
<svg xmlns="http://www.w3.org/2000/svg" xmlns:xlink="http://www.w3.org/1999/xlink" width="50px" height="50px" viewBox="0 0 50 50" version="1.1">
<g id="surface1">
<path style=" stroke:none;fill-rule:nonzero;fill:rgb(0%,35.686275%,100%);fill-opacity:1;" d="M 15.90625 40.019531 L 13.222656 40.019531 C 11.335938 40.019531 9.804688 38.484375 9.804688 36.601562 L 9.804688 24.90625 C 9.804688 23.023438 11.335938 21.488281 13.222656 21.488281 L 15.90625 21.488281 C 17.792969 21.488281 19.328125 23.023438 19.328125 24.90625 L 19.328125 36.601562 C 19.328125 38.484375 17.792969 40.019531 15.90625 40.019531 Z M 13.226562 23.441406 C 12.421875 23.441406 11.761719 24.101562 11.761719 24.90625 L 11.761719 36.601562 C 11.761719 37.40625 12.421875 38.066406 13.226562 38.066406 L 15.914062 38.066406 C 16.71875 38.066406 17.378906 37.40625 17.378906 36.601562 L 17.378906 24.90625 C 17.378906 24.101562 16.71875 23.441406 15.914062 23.441406 Z M 13.226562 23.441406 "/>
<path style=" stroke:none;fill-rule:nonzero;fill:rgb(90.196078%,90.196078%,90.196078%);fill-opacity:1;" d="M 40.761719 8.675781 L 38.078125 8.675781 C 37.269531 8.675781 36.609375 9.335938 36.609375 10.140625 L 36.609375 36.601562 C 36.609375 37.40625 37.269531 38.066406 38.078125 38.066406 L 40.761719 38.066406 C 41.566406 38.066406 42.226562 37.40625 42.226562 36.601562 L 42.226562 10.140625 C 42.226562 9.335938 41.566406 8.675781 40.761719 8.675781 Z M 28.335938 14.683594 L 25.648438 14.683594 C 24.84375 14.683594 24.183594 15.34375 24.183594 16.148438 L 24.183594 36.601562 C 24.183594 37.40625 24.84375 38.066406 25.648438 38.066406 L 28.335938 38.066406 C 29.140625 38.066406 29.800781 37.40625 29.800781 36.601562 L 29.800781 16.148438 C 29.800781 15.34375 29.140625 14.683594 28.335938 14.683594 Z M 15.90625 23.421875 L 13.222656 23.421875 C 12.417969 23.421875 11.757812 24.082031 11.757812 24.886719 L 11.757812 36.601562 C 11.757812 37.40625 12.417969 38.066406 13.222656 38.066406 L 15.90625 38.066406 C 16.714844 38.066406 17.375 37.40625 17.375 36.601562 L 17.375 24.886719 C 17.375 24.082031 16.71875 23.421875 15.90625 23.421875 Z M 15.90625 23.421875 "/>
<path style=" stroke:none;fill-rule:nonzero;fill:rgb(0%,35.686275%,100%);fill-opacity:1;" d="M 40.761719 6.722656 L 38.078125 6.722656 C 36.191406 6.722656 34.65625 8.257812 34.65625 10.140625 L 34.65625 20.292969 C 33.765625 19.875 32.78125 19.601562 31.753906 19.511719 L 31.753906 16.152344 C 31.753906 14.265625 30.21875 12.734375 28.335938 12.734375 L 25.648438 12.734375 C 23.765625 12.734375 22.230469 14.265625 22.230469 16.152344 L 22.230469 36.605469 C 22.230469 38.492188 23.765625 40.023438 25.648438 40.023438 L 28.335938 40.023438 C 30.199219 40.023438 31.71875 38.523438 31.753906 36.671875 C 32.78125 36.582031 33.765625 36.308594 34.65625 35.890625 L 34.65625 36.605469 C 34.65625 38.492188 36.191406 40.023438 38.078125 40.023438 L 40.761719 40.023438 C 42.648438 40.023438 44.179688 38.492188 44.179688 36.605469 L 44.179688 10.140625 C 44.179688 8.257812 42.640625 6.722656 40.761719 6.722656 Z M 36.609375 24.496094 C 37.273438 25.53125 37.660156 26.761719 37.660156 28.085938 C 37.660156 29.40625 37.273438 30.636719 36.609375 31.675781 Z M 24.34375 28.085938 C 24.34375 24.824219 26.699219 22.105469 29.800781 21.539062 L 29.800781 34.632812 C 26.699219 34.066406 24.34375 31.347656 24.34375 28.085938 Z M 25.648438 14.683594 L 28.335938 14.683594 C 29.140625 14.683594 29.800781 15.34375 29.800781 16.148438 L 29.800781 19.5625 C 27.523438 19.882812 25.53125 21.09375 24.183594 22.832031 L 24.183594 16.148438 C 24.183594 15.34375 24.84375 14.683594 25.648438 14.683594 Z M 28.335938 38.066406 L 25.648438 38.066406 C 24.84375 38.066406 24.183594 37.40625 24.183594 36.601562 L 24.183594 33.339844 C 25.527344 35.078125 27.519531 36.292969 29.800781 36.609375 C 29.792969 37.417969 29.140625 38.066406 28.335938 38.066406 Z M 31.753906 34.703125 L 31.753906 21.46875 C 32.816406 21.585938 33.804688 21.957031 34.65625 22.523438 L 34.65625 33.652344 C 33.804688 34.214844 32.816406 34.585938 31.753906 34.703125 Z M 36.609375 36.601562 L 36.609375 35.777344 L 38.886719 38.066406 L 38.078125 38.066406 C 37.265625 38.066406 36.609375 37.414062 36.609375 36.601562 Z M 42.226562 36.601562 C 42.226562 37.152344 41.917969 37.636719 41.464844 37.886719 L 37.421875 33.824219 C 38.785156 32.300781 39.613281 30.289062 39.613281 28.085938 C 39.613281 25.476562 38.445312 23.132812 36.609375 21.558594 L 36.609375 10.140625 C 36.609375 9.335938 37.269531 8.675781 38.078125 8.675781 L 40.761719 8.675781 C 41.566406 8.675781 42.226562 9.335938 42.226562 10.140625 Z M 43.5625 43.03125 L 43.078125 43.03125 C 42.808594 43.03125 42.585938 42.8125 42.585938 42.542969 C 42.585938 42.273438 42.808594 42.054688 43.078125 42.054688 L 43.5625 42.054688 C 43.832031 42.054688 44.054688 42.273438 44.054688 42.542969 C 44.054688 42.8125 43.835938 43.03125 43.5625 43.03125 Z M 41.125 43.03125 L 40.632812 43.03125 C 40.367188 43.03125 40.148438 42.8125 40.148438 42.542969 C 40.148438 42.273438 40.367188 42.054688 40.632812 42.054688 L 41.125 42.054688 C 41.390625 42.054688 41.609375 42.273438 41.609375 42.542969 C 41.609375 42.8125 41.398438 43.03125 41.125 43.03125 Z M 38.679688 43.03125 L 38.195312 43.03125 C 37.925781 43.03125 37.703125 42.8125 37.703125 42.542969 C 37.703125 42.273438 37.925781 42.054688 38.195312 42.054688 L 38.679688 42.054688 C 38.949219 42.054688 39.171875 42.273438 39.171875 42.542969 C 39.171875 42.8125 38.953125 43.03125 38.679688 43.03125 Z M 36.242188 43.03125 L 35.75 43.03125 C 35.484375 43.03125 35.265625 42.8125 35.265625 42.542969 C 35.265625 42.273438 35.484375 42.054688 35.75 42.054688 L 36.242188 42.054688 C 36.507812 42.054688 36.726562 42.273438 36.726562 42.542969 C 36.726562 42.8125 36.515625 43.03125 36.242188 43.03125 Z M 33.796875 43.03125 L 33.3125 43.03125 C 33.042969 43.03125 32.820312 42.8125 32.820312 42.542969 C 32.820312 42.273438 33.042969 42.054688 33.3125 42.054688 L 33.796875 42.054688 C 34.066406 42.054688 34.289062 42.273438 34.289062 42.542969 C 34.289062 42.8125 34.070312 43.03125 33.796875 43.03125 Z M 31.359375 43.03125 L 30.871094 43.03125 C 30.601562 43.03125 30.382812 42.8125 30.382812 42.542969 C 30.382812 42.273438 30.601562 42.054688 30.871094 42.054688 L 31.359375 42.054688 C 31.625 42.054688 31.847656 42.273438 31.847656 42.542969 C 31.847656 42.8125 31.632812 43.03125 31.359375 43.03125 Z M 28.917969 43.03125 L 28.429688 43.03125 C 28.160156 43.03125 27.941406 42.8125 27.941406 42.542969 C 27.941406 42.273438 28.160156 42.054688 28.429688 42.054688 L 28.917969 42.054688 C 29.183594 42.054688 29.40625 42.273438 29.40625 42.542969 C 29.40625 42.8125 29.191406 43.03125 28.917969 43.03125 Z M 26.476562 43.03125 L 25.988281 43.03125 C 25.71875 43.03125 25.5 42.8125 25.5 42.542969 C 25.5 42.273438 25.71875 42.054688 25.988281 42.054688 L 26.476562 42.054688 C 26.742188 42.054688 26.964844 42.273438 26.964844 42.542969 C 26.964844 42.8125 26.75 43.03125 26.476562 43.03125 Z M 24.035156 43.03125 L 23.546875 43.03125 C 23.277344 43.03125 23.058594 42.8125 23.058594 42.542969 C 23.058594 42.273438 23.277344 42.054688 23.546875 42.054688 L 24.035156 42.054688 C 24.300781 42.054688 24.523438 42.273438 24.523438 42.542969 C 24.523438 42.8125 24.308594 43.03125 24.035156 43.03125 Z M 21.59375 43.03125 L 21.105469 43.03125 C 20.835938 43.03125 20.617188 42.8125 20.617188 42.542969 C 20.617188 42.273438 20.835938 42.054688 21.105469 42.054688 L 21.59375 42.054688 C 21.859375 42.054688 22.082031 42.273438 22.082031 42.542969 C 22.082031 42.8125 21.867188 43.03125 21.59375 43.03125 Z M 19.152344 43.03125 L 18.664062 43.03125 C 18.394531 43.03125 18.175781 42.8125 18.175781 42.542969 C 18.175781 42.273438 18.394531 42.054688 18.664062 42.054688 L 19.152344 42.054688 C 19.417969 42.054688 19.640625 42.273438 19.640625 42.542969 C 19.640625 42.8125 19.425781 43.03125 19.152344 43.03125 Z M 16.710938 43.03125 L 16.222656 43.03125 C 15.953125 43.03125 15.734375 42.8125 15.734375 42.542969 C 15.734375 42.273438 15.953125 42.054688 16.222656 42.054688 L 16.710938 42.054688 C 16.976562 42.054688 17.199219 42.273438 17.199219 42.542969 C 17.199219 42.8125 16.984375 43.03125 16.710938 43.03125 Z M 14.269531 43.03125 L 13.78125 43.03125 C 13.511719 43.03125 13.292969 42.8125 13.292969 42.542969 C 13.292969 42.273438 13.511719 42.054688 13.78125 42.054688 L 14.269531 42.054688 C 14.535156 42.054688 14.757812 42.273438 14.757812 42.542969 C 14.757812 42.8125 14.542969 43.03125 14.269531 43.03125 Z M 11.828125 43.03125 L 11.339844 43.03125 C 11.070312 43.03125 10.851562 42.8125 10.851562 42.542969 C 10.851562 42.273438 11.070312 42.054688 11.339844 42.054688 L 11.828125 42.054688 C 12.09375 42.054688 12.316406 42.273438 12.316406 42.542969 C 12.316406 42.8125 12.101562 43.03125 11.828125 43.03125 Z M 9.386719 43.03125 L 8.898438 43.03125 C 8.628906 43.03125 8.410156 42.8125 8.410156 42.542969 C 8.410156 42.273438 8.628906 42.054688 8.898438 42.054688 L 9.386719 42.054688 C 9.652344 42.054688 9.875 42.273438 9.875 42.542969 C 9.875 42.8125 9.660156 43.03125 9.386719 43.03125 Z M 6.945312 43.03125 L 6.457031 43.03125 C 6.1875 43.03125 5.96875 42.8125 5.96875 42.542969 C 5.96875 42.273438 6.1875 42.054688 6.457031 42.054688 L 6.945312 42.054688 C 7.210938 42.054688 7.433594 42.273438 7.433594 42.542969 C 7.433594 42.8125 7.21875 43.03125 6.945312 43.03125 Z M 6.242188 41.292969 C 5.972656 41.292969 5.753906 41.074219 5.753906 40.804688 L 5.753906 40.316406 C 5.753906 40.046875 5.972656 39.828125 6.242188 39.828125 C 6.507812 39.828125 6.730469 40.046875 6.730469 40.316406 L 6.730469 40.804688 C 6.730469 41.074219 6.507812 41.292969 6.242188 41.292969 Z M 6.242188 38.851562 C 5.972656 38.851562 5.753906 38.632812 5.753906 38.363281 L 5.753906 37.875 C 5.753906 37.609375 5.972656 37.386719 6.242188 37.386719 C 6.507812 37.386719 6.730469 37.609375 6.730469 37.875 L 6.730469 38.363281 C 6.730469 38.632812 6.507812 38.851562 6.242188 38.851562 Z M 6.242188 36.410156 C 5.972656 36.410156 5.753906 36.191406 5.753906 35.921875 L 5.753906 35.433594 C 5.753906 35.164062 5.972656 34.945312 6.242188 34.945312 C 6.507812 34.945312 6.730469 35.164062 6.730469 35.433594 L 6.730469 35.921875 C 6.730469 36.191406 6.507812 36.410156 6.242188 36.410156 Z M 6.242188 33.96875 C 5.972656 33.96875 5.753906 33.75 5.753906 33.480469 L 5.753906 32.992188 C 5.753906 32.726562 5.972656 32.503906 6.242188 32.503906 C 6.507812 32.503906 6.730469 32.726562 6.730469 32.992188 L 6.730469 33.480469 C 6.730469 33.75 6.507812 33.96875 6.242188 33.96875 Z M 6.242188 31.527344 C 5.972656 31.527344 5.753906 31.308594 5.753906 31.039062 L 5.753906 30.550781 C 5.753906 30.28125 5.972656 30.0625 6.242188 30.0625 C 6.507812 30.0625 6.730469 30.28125 6.730469 30.550781 L 6.730469 31.039062 C 6.730469 31.308594 6.507812 31.527344 6.242188 31.527344 Z M 6.242188 29.085938 C 5.972656 29.085938 5.753906 28.867188 5.753906 28.597656 L 5.753906 28.109375 C 5.753906 27.839844 5.972656 27.621094 6.242188 27.621094 C 6.507812 27.621094 6.730469 27.839844 6.730469 28.109375 L 6.730469 28.597656 C 6.730469 28.867188 6.507812 29.085938 6.242188 29.085938 Z M 6.242188 26.644531 C 5.972656 26.644531 5.753906 26.425781 5.753906 26.15625 L 5.753906 25.667969 C 5.753906 25.398438 5.972656 25.179688 6.242188 25.179688 C 6.507812 25.179688 6.730469 25.398438 6.730469 25.667969 L 6.730469 26.15625 C 6.730469 26.425781 6.507812 26.644531 6.242188 26.644531 Z M 6.242188 24.203125 C 5.972656 24.203125 5.753906 23.984375 5.753906 23.714844 L 5.753906 23.226562 C 5.753906 22.957031 5.972656 22.738281 6.242188 22.738281 C 6.507812 22.738281 6.730469 22.957031 6.730469 23.226562 L 6.730469 23.714844 C 6.730469 23.984375 6.507812 24.203125 6.242188 24.203125 Z M 6.242188 21.761719 C 5.972656 21.761719 5.753906 21.542969 5.753906 21.273438 L 5.753906 20.785156 C 5.753906 20.515625 5.972656 20.296875 6.242188 20.296875 C 6.507812 20.296875 6.730469 20.515625 6.730469 20.785156 L 6.730469 21.273438 C 6.730469 21.542969 6.507812 21.761719 6.242188 21.761719 Z M 6.242188 19.320312 C 5.972656 19.320312 5.753906 19.101562 5.753906 18.832031 L 5.753906 18.34375 C 5.753906 18.074219 5.972656 17.855469 6.242188 17.855469 C 6.507812 17.855469 6.730469 18.074219 6.730469 18.34375 L 6.730469 18.832031 C 6.730469 19.101562 6.507812 19.320312 6.242188 19.320312 Z M 6.242188 16.878906 C 5.972656 16.878906 5.753906 16.660156 5.753906 16.390625 L 5.753906 15.902344 C 5.753906 15.632812 5.972656 15.414062 6.242188 15.414062 C 6.507812 15.414062 6.730469 15.632812 6.730469 15.902344 L 6.730469 16.390625 C 6.730469 16.660156 6.507812 16.878906 6.242188 16.878906 Z M 6.242188 14.4375 C 5.972656 14.4375 5.753906 14.21875 5.753906 13.949219 L 5.753906 13.460938 C 5.753906 13.191406 5.972656 12.972656 6.242188 12.972656 C 6.507812 12.972656 6.730469 13.191406 6.730469 13.460938 L 6.730469 13.949219 C 6.730469 14.21875 6.507812 14.4375 6.242188 14.4375 Z M 6.242188 11.996094 C 5.972656 11.996094 5.753906 11.777344 5.753906 11.507812 L 5.753906 11.019531 C 5.753906 10.75 5.972656 10.53125 6.242188 10.53125 C 6.507812 10.53125 6.730469 10.75 6.730469 11.019531 L 6.730469 11.507812 C 6.730469 11.777344 6.507812 11.996094 6.242188 11.996094 Z M 6.242188 11.996094 "/>
<path style=" stroke:none;fill-rule:nonzero;fill:rgb(100%,100%,100%);fill-opacity:1;" d="M 31.007812 21.429688 C 27.332031 21.429688 24.34375 24.417969 24.34375 28.089844 C 24.34375 31.761719 27.332031 34.746094 31.007812 34.746094 C 34.679688 34.746094 37.664062 31.757812 37.664062 28.085938 C 37.664062 24.414062 34.679688 21.429688 31.007812 21.429688 Z M 31.007812 21.429688 "/>
<path style=" stroke:none;fill-rule:nonzero;fill:rgb(2.352941%,95.294118%,100%);fill-opacity:1;" d="M 31.007812 22.542969 C 30.320312 22.542969 29.648438 22.664062 29.015625 22.910156 C 28.757812 23.007812 28.636719 23.289062 28.734375 23.539062 C 28.832031 23.792969 29.117188 23.914062 29.367188 23.816406 C 29.886719 23.617188 30.4375 23.515625 31.007812 23.515625 C 33.523438 23.515625 35.570312 25.566406 35.570312 28.082031 C 35.570312 29.042969 35.273438 29.960938 34.71875 30.742188 C 34.5 31.042969 34.25 31.316406 33.960938 31.5625 C 33.753906 31.738281 33.730469 32.046875 33.90625 32.25 C 34.003906 32.363281 34.140625 32.421875 34.277344 32.421875 C 34.390625 32.421875 34.5 32.382812 34.59375 32.304688 C 34.9375 32.011719 35.25 31.679688 35.511719 31.308594 C 36.191406 30.359375 36.550781 29.246094 36.550781 28.074219 C 36.546875 25.027344 34.0625 22.542969 31.003906 22.542969 Z M 31.007812 22.542969 "/>
</g>
</svg>
