<?xml version="1.0" encoding="UTF-8"?>
<svg xmlns="http://www.w3.org/2000/svg" xmlns:xlink="http://www.w3.org/1999/xlink" width="50px" height="50px" viewBox="0 0 50 50" version="1.1">
<g id="surface1">
<path style=" stroke:none;fill-rule:nonzero;fill:rgb(67.45098%,87.45098%,98.823529%);fill-opacity:1;" d="M 39.355469 33.59375 L 42.449219 33.59375 C 46.058594 33.589844 49.023438 30.742188 49.171875 27.136719 C 49.320312 23.53125 46.601562 20.449219 43.003906 20.148438 C 43.792969 17.269531 42.824219 14.191406 40.519531 12.289062 C 38.21875 10.386719 35.015625 10.011719 32.335938 11.328125 C 29.351562 6.402344 23.457031 4.054688 17.902344 5.578125 C 12.34375 7.101562 8.476562 12.128906 8.421875 17.890625 C 8.421875 18.058594 8.421875 18.222656 8.421875 18.386719 C 4.222656 18.386719 0.816406 21.792969 0.816406 25.992188 C 0.816406 30.191406 4.222656 33.597656 8.421875 33.597656 L 10.644531 33.597656 "/>
<path style=" stroke:none;fill-rule:nonzero;fill:rgb(25.098039%,25.098039%,25.098039%);fill-opacity:1;" d="M 42.453125 34.375 L 39.359375 34.375 C 38.929688 34.375 38.578125 34.023438 38.578125 33.59375 C 38.578125 33.164062 38.929688 32.8125 39.359375 32.8125 L 42.453125 32.8125 C 45.648438 32.816406 48.28125 30.300781 48.410156 27.105469 C 48.542969 23.914062 46.132812 21.183594 42.945312 20.925781 C 42.707031 20.910156 42.492188 20.785156 42.359375 20.589844 C 42.222656 20.394531 42.1875 20.148438 42.253906 19.921875 C 42.957031 17.339844 42.082031 14.585938 40.015625 12.882812 C 37.953125 11.179688 35.082031 10.84375 32.679688 12.023438 C 32.316406 12.199219 31.875 12.066406 31.667969 11.71875 C 28.863281 7.089844 23.324219 4.882812 18.105469 6.316406 C 12.886719 7.75 9.25 12.472656 9.203125 17.886719 C 9.203125 18.042969 9.203125 18.199219 9.203125 18.355469 C 9.210938 18.566406 9.132812 18.773438 8.984375 18.929688 C 8.839844 19.082031 8.632812 19.167969 8.421875 19.167969 L 8.390625 19.167969 C 5.914062 19.113281 3.605469 20.40625 2.351562 22.546875 C 1.101562 24.683594 1.109375 27.332031 2.367188 29.464844 C 3.628906 31.59375 5.945312 32.878906 8.421875 32.8125 L 10.644531 32.8125 C 11.074219 32.8125 11.425781 33.164062 11.425781 33.59375 C 11.425781 34.023438 11.074219 34.375 10.644531 34.375 L 8.421875 34.375 C 3.9375 34.382812 0.238281 30.859375 0.03125 26.378906 C -0.179688 21.898438 3.175781 18.046875 7.640625 17.636719 C 7.792969 11.691406 11.769531 6.53125 17.476562 4.863281 C 23.183594 3.199219 29.316406 5.410156 32.640625 10.339844 C 35.214844 9.332031 38.121094 9.660156 40.410156 11.214844 C 42.695312 12.769531 44.070312 15.351562 44.078125 18.117188 C 44.078125 18.578125 44.039062 19.039062 43.960938 19.496094 C 47.757812 20.25 50.359375 23.769531 49.96875 27.621094 C 49.578125 31.472656 46.324219 34.398438 42.453125 34.375 Z M 42.453125 34.375 "/>
<path style=" stroke:none;fill-rule:nonzero;fill:rgb(62.352941%,62.352941%,62.352941%);fill-opacity:1;" d="M 36.382812 41.40625 L 13.613281 41.40625 L 13.613281 17.96875 L 36.382812 17.96875 Z M 36.382812 41.40625 "/>
<path style=" stroke:none;fill-rule:nonzero;fill:rgb(25.098039%,25.098039%,25.098039%);fill-opacity:1;" d="M 36.382812 42.1875 L 13.617188 42.1875 C 13.1875 42.1875 12.835938 41.835938 12.835938 41.40625 L 12.835938 17.96875 C 12.835938 17.539062 13.1875 17.1875 13.617188 17.1875 L 36.382812 17.1875 C 36.8125 17.1875 37.164062 17.539062 37.164062 17.96875 L 37.164062 41.40625 C 37.164062 41.835938 36.8125 42.1875 36.382812 42.1875 Z M 14.394531 40.625 L 35.601562 40.625 L 35.601562 18.75 L 14.398438 18.75 Z M 14.394531 40.625 "/>
<path style=" stroke:none;fill-rule:nonzero;fill:rgb(25.098039%,25.098039%,25.098039%);fill-opacity:1;" d="M 17.1875 44.921875 C 16.757812 44.921875 16.40625 44.570312 16.40625 44.140625 L 16.40625 41.40625 C 16.40625 40.976562 16.757812 40.625 17.1875 40.625 C 17.617188 40.625 17.96875 40.976562 17.96875 41.40625 L 17.96875 44.140625 C 17.96875 44.570312 17.617188 44.921875 17.1875 44.921875 Z M 17.1875 44.921875 "/>
<path style=" stroke:none;fill-rule:nonzero;fill:rgb(25.098039%,25.098039%,25.098039%);fill-opacity:1;" d="M 32.8125 44.921875 C 32.382812 44.921875 32.03125 44.570312 32.03125 44.140625 L 32.03125 41.40625 C 32.03125 40.976562 32.382812 40.625 32.8125 40.625 C 33.242188 40.625 33.59375 40.976562 33.59375 41.40625 L 33.59375 44.140625 C 33.59375 44.570312 33.242188 44.921875 32.8125 44.921875 Z M 32.8125 44.921875 "/>
<path style=" stroke:none;fill-rule:nonzero;fill:rgb(25.098039%,25.098039%,25.098039%);fill-opacity:1;" d="M 36.328125 26.5625 L 13.671875 26.5625 C 13.242188 26.5625 12.890625 26.210938 12.890625 25.78125 C 12.890625 25.351562 13.242188 25 13.671875 25 L 36.328125 25 C 36.757812 25 37.109375 25.351562 37.109375 25.78125 C 37.109375 26.210938 36.757812 26.5625 36.328125 26.5625 Z M 36.328125 26.5625 "/>
<path style=" stroke:none;fill-rule:nonzero;fill:rgb(25.098039%,25.098039%,25.098039%);fill-opacity:1;" d="M 36.328125 34.375 L 13.671875 34.375 C 13.242188 34.375 12.890625 34.023438 12.890625 33.59375 C 12.890625 33.164062 13.242188 32.8125 13.671875 32.8125 L 36.328125 32.8125 C 36.757812 32.8125 37.109375 33.164062 37.109375 33.59375 C 37.109375 34.023438 36.757812 34.375 36.328125 34.375 Z M 36.328125 34.375 "/>
<path style=" stroke:none;fill-rule:nonzero;fill:rgb(25.098039%,25.098039%,25.098039%);fill-opacity:1;" d="M 17.1875 28.90625 C 16.757812 28.90625 16.40625 29.257812 16.40625 29.6875 C 16.40625 30.117188 16.757812 30.46875 17.1875 30.46875 C 17.617188 30.46875 17.96875 30.117188 17.96875 29.6875 C 17.96875 29.257812 17.617188 28.90625 17.1875 28.90625 Z M 17.1875 28.90625 "/>
<path style=" stroke:none;fill-rule:nonzero;fill:rgb(25.098039%,25.098039%,25.098039%);fill-opacity:1;" d="M 17.1875 21.09375 C 16.757812 21.09375 16.40625 21.445312 16.40625 21.875 C 16.40625 22.304688 16.757812 22.65625 17.1875 22.65625 C 17.617188 22.65625 17.96875 22.304688 17.96875 21.875 C 17.96875 21.445312 17.617188 21.09375 17.1875 21.09375 Z M 17.1875 21.09375 "/>
<path style=" stroke:none;fill-rule:nonzero;fill:rgb(25.098039%,25.098039%,25.098039%);fill-opacity:1;" d="M 17.1875 36.71875 C 16.757812 36.71875 16.40625 37.070312 16.40625 37.5 C 16.40625 37.929688 16.757812 38.28125 17.1875 38.28125 C 17.617188 38.28125 17.96875 37.929688 17.96875 37.5 C 17.96875 37.070312 17.617188 36.71875 17.1875 36.71875 Z M 17.1875 36.71875 "/>
</g>
</svg>
