<?xml version="1.0" encoding="UTF-8"?>
<svg xmlns="http://www.w3.org/2000/svg" xmlns:xlink="http://www.w3.org/1999/xlink" width="50px" height="50px" viewBox="0 0 50 50" version="1.1">
<g id="surface1">
<path style=" stroke:none;fill-rule:nonzero;fill:rgb(0%,42.745098%,94.117647%);fill-opacity:1;" d="M 1.660156 17.003906 L 36.550781 17.003906 L 36.550781 40.152344 L 1.660156 40.152344 Z M 1.660156 17.003906 "/>
<path style=" stroke:none;fill-rule:nonzero;fill:rgb(0%,32.156863%,70.588235%);fill-opacity:1;" d="M 19.105469 17.003906 L 36.550781 17.003906 L 36.550781 40.152344 L 19.105469 40.152344 Z M 19.105469 17.003906 "/>
<path style=" stroke:none;fill-rule:nonzero;fill:rgb(57.647059%,78.039216%,93.72549%);fill-opacity:1;" d="M 0 38.917969 L 0 41.164062 C 0 43.644531 2.015625 45.660156 4.496094 45.660156 L 33.714844 45.660156 C 36.195312 45.660156 38.210938 43.644531 38.210938 41.164062 L 38.210938 38.917969 Z M 0 38.917969 "/>
<path style=" stroke:none;fill-rule:nonzero;fill:rgb(47.058824%,72.54902%,92.156863%);fill-opacity:1;" d="M 19.109375 38.917969 L 19.109375 45.660156 L 33.714844 45.660156 C 36.195312 45.660156 38.210938 43.644531 38.210938 41.164062 L 38.210938 38.917969 Z M 19.109375 38.917969 "/>
<path style=" stroke:none;fill-rule:nonzero;fill:rgb(100%,100%,100%);fill-opacity:1;" d="M 12.855469 24.3125 L 8.496094 28.671875 L 12.855469 33.027344 L 15.238281 30.644531 L 13.265625 28.671875 L 15.238281 26.695312 Z M 12.855469 24.3125 "/>
<path style=" stroke:none;fill-rule:nonzero;fill:rgb(100%,100%,100%);fill-opacity:1;" d="M 22.160156 22.332031 L 18.863281 21.640625 L 16.125 34.652344 L 19.570312 34.652344 Z M 22.160156 22.332031 "/>
<path style=" stroke:none;fill-rule:nonzero;fill:rgb(0%,42.745098%,94.117647%);fill-opacity:1;" d="M 48.769531 28.914062 L 35.261719 15.402344 C 34.46875 14.609375 33.410156 14.171875 32.28125 14.171875 C 31.152344 14.171875 30.09375 14.609375 29.300781 15.402344 C 28.507812 16.195312 28.070312 17.253906 28.070312 18.382812 C 28.070312 19.511719 28.507812 20.570312 29.300781 21.363281 L 42.808594 34.871094 C 43.601562 35.667969 44.660156 36.101562 45.789062 36.101562 C 46.917969 36.101562 47.976562 35.664062 48.769531 34.871094 C 49.5625 34.078125 50 33.019531 50 31.890625 C 50 30.765625 49.5625 29.707031 48.769531 28.914062 Z M 48.769531 28.914062 "/>
<path style=" stroke:none;fill-rule:nonzero;fill:rgb(100%,100%,100%);fill-opacity:1;" d="M 44.648438 18.386719 C 44.648438 25.214844 39.113281 30.75 32.285156 30.75 C 25.457031 30.75 19.921875 25.214844 19.921875 18.386719 C 19.921875 11.558594 25.457031 6.023438 32.285156 6.023438 C 39.113281 6.023438 44.648438 11.558594 44.648438 18.386719 Z M 44.648438 18.386719 "/>
<path style=" stroke:none;fill-rule:nonzero;fill:rgb(47.058824%,72.54902%,92.156863%);fill-opacity:1;" d="M 32.285156 32.429688 C 28.6875 32.429688 25.089844 31.058594 22.351562 28.320312 C 19.699219 25.667969 18.238281 22.140625 18.238281 18.386719 C 18.238281 14.632812 19.699219 11.105469 22.351562 8.453125 C 25.003906 5.800781 28.53125 4.339844 32.285156 4.339844 C 36.035156 4.339844 39.566406 5.800781 42.21875 8.453125 C 44.871094 11.105469 46.332031 14.632812 46.332031 18.386719 C 46.332031 22.140625 44.871094 25.667969 42.21875 28.320312 C 39.480469 31.058594 35.882812 32.429688 32.285156 32.429688 Z M 24.734375 25.9375 C 28.898438 30.097656 35.671875 30.097656 39.832031 25.9375 C 41.851562 23.921875 42.960938 21.238281 42.960938 18.386719 C 42.960938 15.535156 41.851562 12.855469 39.832031 10.835938 C 37.816406 8.820312 35.136719 7.710938 32.285156 7.710938 C 29.433594 7.710938 26.75 8.820312 24.734375 10.835938 C 22.71875 12.855469 21.609375 15.535156 21.609375 18.386719 C 21.609375 21.238281 22.71875 23.921875 24.734375 25.9375 Z M 24.734375 25.9375 "/>
<path style=" stroke:none;fill-rule:nonzero;fill:rgb(47.058824%,72.54902%,92.156863%);fill-opacity:1;" d="M 42.21875 8.453125 C 39.566406 5.800781 36.035156 4.339844 32.285156 4.339844 L 32.285156 7.710938 C 35.136719 7.710938 37.816406 8.820312 39.832031 10.835938 C 41.851562 12.855469 42.960938 15.535156 42.960938 18.386719 C 42.960938 21.238281 41.851562 23.917969 39.832031 25.9375 C 37.753906 28.019531 35.019531 29.058594 32.285156 29.058594 L 32.285156 32.429688 C 35.882812 32.429688 39.480469 31.058594 42.21875 28.320312 C 44.871094 25.667969 46.332031 22.140625 46.332031 18.386719 C 46.332031 14.632812 44.871094 11.105469 42.21875 8.453125 Z M 42.21875 8.453125 "/>
<path style=" stroke:none;fill-rule:nonzero;fill:rgb(0%,42.745098%,94.117647%);fill-opacity:1;" d="M 30.914062 17.722656 L 27.542969 17.707031 L 27.558594 14.222656 C 27.570312 11.746094 29.589844 9.742188 32.0625 9.742188 C 32.070312 9.742188 32.078125 9.742188 32.085938 9.742188 C 34.570312 9.753906 36.578125 11.785156 36.5625 14.269531 L 33.191406 14.257812 C 33.195312 13.953125 33.078125 13.667969 32.863281 13.449219 C 32.648438 13.234375 32.367188 13.113281 32.066406 13.113281 C 32.066406 13.113281 32.0625 13.113281 32.0625 13.113281 C 31.449219 13.113281 30.933594 13.625 30.929688 14.238281 Z M 30.914062 17.722656 "/>
<path style=" stroke:none;fill-rule:nonzero;fill:rgb(0%,32.156863%,70.588235%);fill-opacity:1;" d="M 26.597656 17.003906 L 26.542969 24.300781 L 37.457031 24.359375 L 37.519531 17.054688 Z M 26.597656 17.003906 "/>
</g>
</svg>
