<?xml version="1.0" encoding="UTF-8"?>
<svg xmlns="http://www.w3.org/2000/svg" xmlns:xlink="http://www.w3.org/1999/xlink" width="50px" height="50px" viewBox="0 0 50 50" version="1.1">
<g id="surface1">
<path style=" stroke:none;fill-rule:nonzero;fill:rgb(47.058824%,72.54902%,92.156863%);fill-opacity:1;" d="M 31.808594 2.667969 L 29.164062 5.3125 L 32.328125 8.480469 L 29.164062 11.644531 L 31.808594 14.289062 L 37.621094 8.480469 Z M 31.808594 2.667969 "/>
<path style=" stroke:none;fill-rule:nonzero;fill:rgb(47.058824%,72.54902%,92.156863%);fill-opacity:1;" d="M 17.671875 8.480469 L 20.835938 5.3125 L 18.191406 2.667969 L 12.378906 8.480469 L 18.191406 14.289062 L 20.835938 11.644531 Z M 17.671875 8.480469 "/>
<path style=" stroke:none;fill-rule:nonzero;fill:rgb(47.058824%,72.54902%,92.156863%);fill-opacity:1;" d="M 28.695312 0 L 24.875 0 L 21.304688 16.957031 L 25.125 16.957031 Z M 28.695312 0 "/>
<path style=" stroke:none;fill-rule:nonzero;fill:rgb(0%,42.745098%,94.117647%);fill-opacity:1;" d="M 8.167969 20.074219 L 8.167969 32.792969 L 19.390625 42.199219 L 19.390625 50 L 30.609375 50 L 30.609375 42.199219 L 41.832031 32.792969 L 41.832031 20.074219 Z M 8.167969 20.074219 "/>
<path style=" stroke:none;fill-rule:nonzero;fill:rgb(0%,32.156863%,70.588235%);fill-opacity:1;" d="M 25 20.074219 L 25 50 L 30.609375 50 L 30.609375 42.199219 L 41.832031 32.792969 L 41.832031 20.074219 Z M 25 20.074219 "/>
</g>
</svg>
